<svg xmlns="http://www.w3.org/2000/svg" width="80.691" height="56.423" viewBox="0 0 80.691 56.423">
  <g id="Group_21" data-name="Group 21" transform="translate(0 0)">
    <g id="Group_20" data-name="Group 20">
      <g id="Group_11" data-name="Group 11" transform="translate(2.661 2.611)">
        <g id="Group_10" data-name="Group 10">
          <path id="Path_28" data-name="Path 28" d="M-2104.529,2431.715v-51.2h75.368v51.2Zm75.061-.307v0Zm-74.446-.308h74.137v-49.97h-74.137v49.97Z" transform="translate(2104.529 -2380.515)" fill="#6b6a7e"/>
        </g>
      </g>
      <g id="Group_12" data-name="Group 12" transform="translate(52.036 11.874)">
        <path id="Path_29" data-name="Path 29" d="M-2041,2392.464h1.082v2.694h-.516v-2.24H-2041Z" transform="translate(2041 -2392.441)" fill="#6b6a7e"/>
        <path id="Path_30" data-name="Path 30" d="M-2037.864,2394.706a1.087,1.087,0,0,0,.309.044.635.635,0,0,0,.542-.24,1.043,1.043,0,0,0,.173-.66.689.689,0,0,1-.284.266.914.914,0,0,1-.424.093.84.84,0,0,1-.627-.236.859.859,0,0,1-.232-.63.944.944,0,0,1,.118-.481.8.8,0,0,1,.333-.315,1.079,1.079,0,0,1,.5-.112,1.079,1.079,0,0,1,.591.158,1.019,1.019,0,0,1,.381.455,1.708,1.708,0,0,1,.133.7,1.84,1.84,0,0,1-.145.751,1.136,1.136,0,0,1-.41.5,1.1,1.1,0,0,1-.62.175,1.671,1.671,0,0,1-.425-.057,1.614,1.614,0,0,1-.39-.153l.2-.382A.94.94,0,0,0-2037.864,2394.706Zm.07-1.71a.451.451,0,0,0-.138.35.436.436,0,0,0,.131.339.5.5,0,0,0,.358.123.537.537,0,0,0,.389-.137.434.434,0,0,0,.138-.34.438.438,0,0,0-.128-.323.5.5,0,0,0-.383-.139A.52.52,0,0,0-2037.794,2393Z" transform="translate(2040.422 -2392.434)" fill="#6b6a7e"/>
        <path id="Path_31" data-name="Path 31" d="M-2033.074,2392.625a.621.621,0,0,1,.244.518.583.583,0,0,1-.1.333.667.667,0,0,1-.277.236.811.811,0,0,1,.375.269.674.674,0,0,1,.138.416.684.684,0,0,1-.127.411.792.792,0,0,1-.364.272,1.482,1.482,0,0,1-.553.094,1.484,1.484,0,0,1-.552-.094.8.8,0,0,1-.364-.267.671.671,0,0,1-.127-.408.665.665,0,0,1,.142-.421.831.831,0,0,1,.392-.272.76.76,0,0,1-.295-.246.594.594,0,0,1-.106-.344.6.6,0,0,1,.245-.5,1.059,1.059,0,0,1,.659-.187A1.06,1.06,0,0,1-2033.074,2392.625Zm-1.076,1.417a.357.357,0,0,0-.147.3.372.372,0,0,0,.147.312.661.661,0,0,0,.411.112.674.674,0,0,0,.41-.11.365.365,0,0,0,.149-.311.359.359,0,0,0-.149-.305.683.683,0,0,0-.413-.11A.673.673,0,0,0-2034.15,2394.043Zm.064-1.143a.317.317,0,0,0-.125.27.321.321,0,0,0,.125.27.559.559,0,0,0,.347.1.554.554,0,0,0,.347-.1.324.324,0,0,0,.124-.27.32.32,0,0,0-.124-.27.552.552,0,0,0-.347-.1A.558.558,0,0,0-2034.086,2392.9Z" transform="translate(2039.614 -2392.434)" fill="#6b6a7e"/>
        <path id="Path_32" data-name="Path 32" d="M-2031.331,2392.464h2.078v.385l-1.108,2.309h-.546l1.073-2.244h-1.035l0,.381h-.459Z" transform="translate(2038.846 -2392.441)" fill="#6b6a7e"/>
      </g>
      <g id="Group_13" data-name="Group 13" transform="translate(18.907 11.855)">
        <path id="Path_33" data-name="Path 33" d="M-2083.626,2392.464h1.975v.45h-1.459v.665h1.308v.45h-1.308v.679h1.5v.45h-2.021Z" transform="translate(2083.626 -2392.421)" fill="#6b6a7e"/>
        <path id="Path_34" data-name="Path 34" d="M-2078.659,2392.948a1.274,1.274,0,0,0-.383-.069.529.529,0,0,0-.292.069.215.215,0,0,0-.108.192.253.253,0,0,0,.075.187.593.593,0,0,0,.187.123,3.089,3.089,0,0,0,.31.106,3.317,3.317,0,0,1,.449.162.8.8,0,0,1,.3.238.658.658,0,0,1,.124.417.707.707,0,0,1-.133.428.83.83,0,0,1-.366.28,1.388,1.388,0,0,1-.533.1,1.676,1.676,0,0,1-.615-.117,1.737,1.737,0,0,1-.522-.314l.214-.438a1.582,1.582,0,0,0,.459.3,1.211,1.211,0,0,0,.473.108.6.6,0,0,0,.339-.083.261.261,0,0,0,.123-.225.259.259,0,0,0-.075-.192.562.562,0,0,0-.19-.121,3.149,3.149,0,0,0-.316-.1,3.7,3.7,0,0,1-.446-.158.78.78,0,0,1-.3-.232.646.646,0,0,1-.123-.411.685.685,0,0,1,.124-.41.8.8,0,0,1,.354-.271,1.361,1.361,0,0,1,.528-.1,1.764,1.764,0,0,1,.519.078,1.762,1.762,0,0,1,.455.207l-.207.451A1.955,1.955,0,0,0-2078.659,2392.948Z" transform="translate(2082.856 -2392.409)" fill="#6b6a7e"/>
        <path id="Path_35" data-name="Path 35" d="M-2076.64,2392.464h2.2v.458h-.839v2.236h-.519v-2.236h-.839Z" transform="translate(2082.07 -2392.421)" fill="#6b6a7e"/>
        <path id="Path_36" data-name="Path 36" d="M-2072.881,2395.338a.268.268,0,0,1,.075.2.279.279,0,0,1-.075.2.254.254,0,0,1-.191.08.245.245,0,0,1-.187-.082.284.284,0,0,1-.075-.2.272.272,0,0,1,.075-.2.251.251,0,0,1,.187-.076A.254.254,0,0,1-2072.881,2395.338Z" transform="translate(2081.333 -2393.045)" fill="#6b6a7e"/>
      </g>
      <g id="Group_14" data-name="Group 14" transform="translate(23.019 38.645)">
        <path id="Path_37" data-name="Path 37" d="M-2075.768,2434.784a1.647,1.647,0,0,1-1.184.488,1.4,1.4,0,0,1-1.032-.351,1.22,1.22,0,0,1-.351-.9q0-1.293,1.964-2.2.055-.461.159-1.245t.165-1.267q.061-.483.083-.637a1.906,1.906,0,0,1,1.042-.284,2.463,2.463,0,0,1,.526.054l-.691,4.684A2.871,2.871,0,0,1-2075.768,2434.784Zm-2.458-5.491a2.076,2.076,0,0,1,.922-1.727,3.98,3.98,0,0,1,2.435-.686,5.955,5.955,0,0,1,1.437.159,3.4,3.4,0,0,1,1.01.4,2.584,2.584,0,0,1,.626.56,1.948,1.948,0,0,1,.411,1.224,1.679,1.679,0,0,1-.532,1.2,1.817,1.817,0,0,1-1.272.548,2.847,2.847,0,0,1,1.618.614,1.7,1.7,0,0,1,.685,1.383,2,2,0,0,1-.844,1.711,3.409,3.409,0,0,1-2.057.614,3.011,3.011,0,0,1-1.651-.318l.341-.922a2.393,2.393,0,0,0,1.124.252,1.474,1.474,0,0,0,1.047-.378,1.308,1.308,0,0,0,.406-1,1.288,1.288,0,0,0-.554-1.052,2.406,2.406,0,0,0-1.508-.428l.1-.812a1.918,1.918,0,0,0,1.113-.312,1.1,1.1,0,0,0,.472-.937,1.229,1.229,0,0,0-.565-1.054,2.88,2.88,0,0,0-1.712-.45,2.9,2.9,0,0,0-1.393.368,1.1,1.1,0,0,0-.68.981.627.627,0,0,0,.242.5,1.167,1.167,0,0,0,.636.247l-.12.811a1.872,1.872,0,0,1-1.284-.471A1.383,1.383,0,0,1-2078.226,2429.293Zm.7,4.585c0,.264.125.395.374.395a.454.454,0,0,0,.323-.2,1.307,1.307,0,0,0,.236-.641l.1-.68Q-2077.523,2433.331-2077.524,2433.879Z" transform="translate(2078.335 -2426.88)" fill="#6b6a7e"/>
        <path id="Path_38" data-name="Path 38" d="M-2063.47,2436.163a1.325,1.325,0,0,1-1.338-.7,1.794,1.794,0,0,1-1.464.714,2.053,2.053,0,0,1-1.5-.6,2.141,2.141,0,0,1-.609-1.591,3.114,3.114,0,0,1,.845-2.292,2.875,2.875,0,0,1,2.139-.856h.066a2.665,2.665,0,0,1,1.009.187,1.321,1.321,0,0,1,.718-.187,1.264,1.264,0,0,1,.609.109q-.1.813-.208,1.6t-.154,1.113a9.432,9.432,0,0,0-.1,1.076c0,.292.115.439.35.439a.826.826,0,0,0,.582-.367,3.28,3.28,0,0,0,.537-1.158,1.517,1.517,0,0,1,.439.636,2.883,2.883,0,0,1-.856,1.464A1.722,1.722,0,0,1-2063.47,2436.163Zm-1.767-4.474a1.334,1.334,0,0,0-1.113.531,2.925,2.925,0,0,0-.488,1.585,1.586,1.586,0,0,0-.011.187,1.323,1.323,0,0,0,.257.856.814.814,0,0,0,.664.318q.691,0,1.042-.977l.263-2.37A1.615,1.615,0,0,0-2065.236,2431.688Z" transform="translate(2076.118 -2427.76)" fill="#6b6a7e"/>
        <path id="Path_39" data-name="Path 39" d="M-2057.3,2432.27c0-.322-.148-.483-.444-.483s-.532.19-.708.571a2.658,2.658,0,0,1,1.185,2.094,1.666,1.666,0,0,1-.472,1.283,1.671,1.671,0,0,1-1.185.439,1.208,1.208,0,0,1-1.042-.444,1.834,1.834,0,0,1-.329-1.125c0-.139,0-.242.01-.307l.384-3.346a2.714,2.714,0,0,1,.8-.121q.668,0,.669.494v.022a1.4,1.4,0,0,1,1.119-.516,1.188,1.188,0,0,1,.769.225.739.739,0,0,1,.274.6.758.758,0,0,1-.28.608,1.091,1.091,0,0,1-.73.236h-.043A1.266,1.266,0,0,0-2057.3,2432.27Zm-1.338.855q-.2,1.579-.2,1.59c0,.309.124.462.372.462q.483,0,.482-.779A1.81,1.81,0,0,0-2058.641,2433.125Z" transform="translate(2074.316 -2427.76)" fill="#6b6a7e"/>
        <path id="Path_40" data-name="Path 40" d="M-2051.487,2432.27c0-.322-.149-.483-.445-.483s-.532.19-.708.571a2.656,2.656,0,0,1,1.186,2.094,1.665,1.665,0,0,1-.473,1.283,1.668,1.668,0,0,1-1.184.439,1.211,1.211,0,0,1-1.043-.444,1.845,1.845,0,0,1-.329-1.125c0-.139,0-.242.011-.307l.384-3.346a2.718,2.718,0,0,1,.8-.121q.669,0,.669.494v.022a1.4,1.4,0,0,1,1.119-.516,1.18,1.18,0,0,1,.768.225.734.734,0,0,1,.274.6.755.755,0,0,1-.28.608,1.092,1.092,0,0,1-.73.236h-.043A1.271,1.271,0,0,0-2051.487,2432.27Zm-1.339.855q-.2,1.579-.2,1.59c0,.309.124.462.373.462.323,0,.483-.26.483-.779A1.81,1.81,0,0,0-2052.826,2433.125Z" transform="translate(2073.021 -2427.76)" fill="#6b6a7e"/>
        <path id="Path_41" data-name="Path 41" d="M-2046.145,2430.832a2.334,2.334,0,0,1,1.684.647,2.109,2.109,0,0,1,.675,1.579,3.1,3.1,0,0,1-.828,2.265,2.689,2.689,0,0,1-2,.851,2.549,2.549,0,0,1-1.86-.669,2.219,2.219,0,0,1-.685-1.656,2.9,2.9,0,0,1,.844-2.194A3.007,3.007,0,0,1-2046.145,2430.832Zm-.213.889a1.015,1.015,0,0,0-.873.591,3.114,3.114,0,0,0-.384,1.492,1.972,1.972,0,0,0,.258,1.053.858.858,0,0,0,.784.417,1.033,1.033,0,0,0,.883-.582,2.489,2.489,0,0,0,.357-1.327,2.373,2.373,0,0,0-.253-1.185A.826.826,0,0,0-2046.358,2431.721Z" transform="translate(2071.835 -2427.76)" fill="#6b6a7e"/>
        <path id="Path_42" data-name="Path 42" d="M-2038.537,2434.877l.264-2.447a.783.783,0,0,0-.153-.493.606.606,0,0,0-.511-.2.745.745,0,0,0-.6.313,1.607,1.607,0,0,0-.312.785q-.4,3.005-.417,3.268h-1.481l.6-5.167a3,3,0,0,1,.7-.12q.736,0,.769.538a1.776,1.776,0,0,1,1.289-.527,1.731,1.731,0,0,1,1.179.374,1.2,1.2,0,0,1,.428.942,4.569,4.569,0,0,1-.066.582q-.253,1.668-.253,1.942,0,.505.34.505.747,0,1.13-1.558a1.986,1.986,0,0,1,.451.625q-.582,1.931-2.019,1.931a1.207,1.207,0,0,1-1.009-.417A1.4,1.4,0,0,1-2038.537,2434.877Z" transform="translate(2070.184 -2427.757)" fill="#6b6a7e"/>
      </g>
      <g id="Group_15" data-name="Group 15" transform="translate(7.579 21.779)">
        <path id="Path_43" data-name="Path 43" d="M-2088.334,2406.812a4.923,4.923,0,0,1,1.58,3.95,5.438,5.438,0,0,1-.775,2.923,5.127,5.127,0,0,1-2.232,1.941,8.038,8.038,0,0,1-3.468.691l-.951-.015q-.921-.031-1.35-.031-1.8,0-2.671.046v-.308a2.425,2.425,0,0,0,.713-.122.514.514,0,0,0,.3-.354,3.293,3.293,0,0,0,.077-.844v-7.609a2.984,2.984,0,0,0-.085-.844.539.539,0,0,0-.3-.354,2.341,2.341,0,0,0-.706-.122v-.307q.706.045,2.088.046h.552l.675-.015q1.288-.03,1.794-.03A7.145,7.145,0,0,1-2088.334,2406.812Zm-5.24-.975a.605.605,0,0,0-.33.384,2.769,2.769,0,0,0-.093.829v7.671a2.77,2.77,0,0,0,.093.829.6.6,0,0,0,.33.384,1.878,1.878,0,0,0,.728.107,2.289,2.289,0,0,0,2.194-1.311,8.822,8.822,0,0,0,.676-3.906,8.158,8.158,0,0,0-.7-3.843,2.332,2.332,0,0,0-2.187-1.25A1.811,1.811,0,0,0-2093.574,2405.837Z" transform="translate(2098.201 -2405.24)" fill="#6b6a7e"/>
        <path id="Path_44" data-name="Path 44" d="M-2073.269,2415.757a.747.747,0,0,0,.468.252v.308q-1.105-.047-2.792-.046-1.749,0-2.577.046v-.308a2.414,2.414,0,0,0,.827-.145.412.412,0,0,0,.247-.407,2.129,2.129,0,0,0-.184-.736l-.906-2.516h-3.1l-.261.69a6.071,6.071,0,0,0-.507,2,.95.95,0,0,0,.353.859,2.1,2.1,0,0,0,1.044.26v.308q-1.151-.047-2.01-.046-.722,0-1.181.046v-.308a1.2,1.2,0,0,0,.721-.475,5.114,5.114,0,0,0,.69-1.319l3.406-8.761c.326.02.6.03.812.03s.471-.01.8-.03l3.714,9.574A2.2,2.2,0,0,0-2073.269,2415.757Zm-5.025-3.859-1.4-3.836-1.473,3.836Z" transform="translate(2095.003 -2405.24)" fill="#6b6a7e"/>
        <path id="Path_45" data-name="Path 45" d="M-2058.751,2415.635a2,2,0,0,0,.521.375v.308q-1.289-.047-2.761-.046-1.137,0-2.195.046v-.308a3.767,3.767,0,0,0,.683-.084c.128-.036.192-.1.192-.208a.826.826,0,0,0-.154-.4l-2.225-3.759a2.344,2.344,0,0,0-.361-.507.635.635,0,0,0-.361-.168v3.8a3.017,3.017,0,0,0,.085.844.539.539,0,0,0,.3.354,2.321,2.321,0,0,0,.706.122v.308q-.891-.047-2.562-.046-1.857,0-2.732.046v-.308a2.419,2.419,0,0,0,.713-.122.514.514,0,0,0,.3-.354,3.321,3.321,0,0,0,.077-.844v-7.609a2.964,2.964,0,0,0-.085-.844.54.54,0,0,0-.3-.354,2.328,2.328,0,0,0-.706-.122v-.307q.876.045,2.732.046,1.657,0,2.563-.046v.307a2.42,2.42,0,0,0-.713.122.514.514,0,0,0-.3.354,3.33,3.33,0,0,0-.077.844v3.467a2.348,2.348,0,0,0,1.2-.46,9.211,9.211,0,0,0,1.427-1.365l.522-.583a2.224,2.224,0,0,0,.674-1.381.852.852,0,0,0-.353-.714,1.6,1.6,0,0,0-.9-.3v-.292q1.288.045,2.593.046.936,0,1.55-.046v.292a5.187,5.187,0,0,0-2.517,1.688l-1.5,1.7,3.56,5.938A3.179,3.179,0,0,0-2058.751,2415.635Z" transform="translate(2091.832 -2405.24)" fill="#6b6a7e"/>
        <path id="Path_46" data-name="Path 46" d="M-2046.425,2405.837a4.779,4.779,0,0,1,2.025,1.91,5.88,5.88,0,0,1,.721,2.985,5.978,5.978,0,0,1-.736,2.992,5.152,5.152,0,0,1-2.056,2.025,6.17,6.17,0,0,1-3.008.721,6.661,6.661,0,0,1-3.038-.659,4.778,4.778,0,0,1-2.025-1.911,5.876,5.876,0,0,1-.72-2.984,5.985,5.985,0,0,1,.736-2.991,5.165,5.165,0,0,1,2.056-2.025,6.165,6.165,0,0,1,3.008-.72A6.654,6.654,0,0,1-2046.425,2405.837Zm-4.426.3a4.694,4.694,0,0,0-.882,1.91,11.589,11.589,0,0,0-.308,2.808,10.1,10.1,0,0,0,.353,2.808,4.719,4.719,0,0,0,.952,1.872,1.762,1.762,0,0,0,1.319.659,1.7,1.7,0,0,0,1.328-.682,4.71,4.71,0,0,0,.882-1.91,11.6,11.6,0,0,0,.308-2.809,10.089,10.089,0,0,0-.354-2.806,4.7,4.7,0,0,0-.951-1.872,1.761,1.761,0,0,0-1.319-.66A1.7,1.7,0,0,0-2050.851,2406.136Z" transform="translate(2088.634 -2405.178)" fill="#6b6a7e"/>
        <path id="Path_47" data-name="Path 47" d="M-2029.28,2408.492a10.345,10.345,0,0,0,.046,1.1h-.352a6.932,6.932,0,0,0-1.3-2.9,2.307,2.307,0,0,0-1.719-.89h-.016v8.776a2.436,2.436,0,0,0,.131.936.7.7,0,0,0,.476.392,4.3,4.3,0,0,0,1.1.1v.308q-2.164-.047-3.361-.046-1.089,0-3.161.046v-.308a4.322,4.322,0,0,0,1.1-.1.7.7,0,0,0,.476-.392,2.456,2.456,0,0,0,.13-.936v-8.776h-.016a2.3,2.3,0,0,0-1.725.882,6.942,6.942,0,0,0-1.3,2.908h-.353a10.345,10.345,0,0,0,.046-1.1q0-1.334-.107-3.038,1.457.045,5.017.046,3.544,0,5-.046Q-2029.281,2407.157-2029.28,2408.492Z" transform="translate(2085.054 -2405.24)" fill="#6b6a7e"/>
        <path id="Path_48" data-name="Path 48" d="M-2016.965,2415.757a.747.747,0,0,0,.467.252v.308q-1.1-.047-2.792-.046-1.75,0-2.578.046v-.308a2.433,2.433,0,0,0,.828-.145.412.412,0,0,0,.246-.407,2.144,2.144,0,0,0-.184-.736l-.906-2.516h-3.1l-.26.69a6.092,6.092,0,0,0-.507,2,.95.95,0,0,0,.353.859,2.1,2.1,0,0,0,1.044.26v.308q-1.151-.047-2.01-.046-.722,0-1.181.046v-.308a1.2,1.2,0,0,0,.72-.475,5.084,5.084,0,0,0,.69-1.319l3.406-8.761c.328.02.6.03.814.03s.47-.01.8-.03l3.713,9.574A2.207,2.207,0,0,0-2016.965,2415.757Zm-5.025-3.859-1.4-3.836-1.472,3.836Z" transform="translate(2082.458 -2405.24)" fill="#6b6a7e"/>
      </g>
      <g id="Group_17" data-name="Group 17">
        <g id="Group_16" data-name="Group 16">
          <path id="Path_49" data-name="Path 49" d="M-2101.156,2433.579v-4.533h-2.265v-2.266h-4.532v-42.827l4.532,0v-2.265h2.265v-4.531h67.1v4.531h2.267v2.267h4.531v42.827h-4.531v2.266h-2.266v4.533Zm-6.183-7.412h4.531v2.265h2.266v4.531h65.87v-4.531h2.265v-2.265h4.531v-41.6h-4.223v-.308h0v.308h-.309V2382.3h-2.265v-4.53h-65.868v4.53h-2.266v2.266h-4.531v41.6Z" transform="translate(2107.953 -2377.156)" fill="#6b6a7e"/>
        </g>
      </g>
      <g id="Group_19" data-name="Group 19" transform="translate(34.319 7.033)">
        <g id="Group_18" data-name="Group 18">
          <path id="Path_50" data-name="Path 50" d="M-2051.742,2392.534v-.6h-1.572a4.452,4.452,0,0,0-1.09-2.636l.731-.73-.427-.427-.732.729a4.446,4.446,0,0,0-2.634-1.089v-1.57h-.605v1.57a4.454,4.454,0,0,0-2.636,1.089l-.73-.73-.428.427.73.732a4.44,4.44,0,0,0-1.089,2.634h-1.572v.605h1.572a4.441,4.441,0,0,0,1.089,2.635l-.731.732.428.426.73-.73a4.457,4.457,0,0,0,2.636,1.091v1.572h.605v-1.572a4.45,4.45,0,0,0,2.634-1.091l.732.73.427-.427-.731-.73a4.448,4.448,0,0,0,1.09-2.635Zm-2.175-.6h-2.207a1.689,1.689,0,0,0-.268-.648l1.559-1.559A3.857,3.857,0,0,1-2053.917,2391.929Zm-3.852,1.372a1.072,1.072,0,0,1-1.071-1.071,1.073,1.073,0,0,1,1.071-1.07,1.071,1.071,0,0,1,1.07,1.07A1.071,1.071,0,0,1-2057.769,2393.3Zm2.507-4.007-1.557,1.558a1.675,1.675,0,0,0-.648-.267v-2.206A3.846,3.846,0,0,1-2055.261,2389.294Zm-2.81-.914v2.206a1.669,1.669,0,0,0-.648.267l-1.559-1.558A3.862,3.862,0,0,1-2058.072,2388.38Zm-2.633,1.342,1.558,1.558a1.684,1.684,0,0,0-.267.648h-2.206A3.849,3.849,0,0,1-2060.705,2389.722Zm-.915,2.812h2.206a1.673,1.673,0,0,0,.267.647l-1.558,1.558A3.839,3.839,0,0,1-2061.62,2392.534Zm1.342,2.633,1.558-1.558a1.665,1.665,0,0,0,.648.267v2.205A3.852,3.852,0,0,1-2060.278,2395.167Zm2.811.914v-2.205a1.659,1.659,0,0,0,.647-.267l1.558,1.558A3.846,3.846,0,0,1-2057.467,2396.081Zm2.634-1.342-1.559-1.558a1.687,1.687,0,0,0,.268-.647h2.207A3.845,3.845,0,0,1-2054.833,2394.739Z" transform="translate(2063.796 -2386.205)" fill="#6b6a7e"/>
        </g>
      </g>
    </g>
  </g>
</svg>
