<svg id="Group_40" data-name="Group 40" xmlns="http://www.w3.org/2000/svg" width="70.95" height="70.181" viewBox="0 0 70.95 70.181">
  <g id="Group_35" data-name="Group 35" transform="translate(14.363 34.136)">
    <path id="Path_63" data-name="Path 63" d="M-2283.251,2412.329h1.687a3.242,3.242,0,0,1,1.363.235,1.382,1.382,0,0,1,.7.716,3.274,3.274,0,0,1,.208,1.277v2.608a3.5,3.5,0,0,1-.208,1.316,1.453,1.453,0,0,1-.694.756,2.887,2.887,0,0,1-1.317.252h-1.741Zm1.706,6.249a1.035,1.035,0,0,0,.627-.149.675.675,0,0,0,.247-.42,4.433,4.433,0,0,0,.053-.8v-2.74a3.257,3.257,0,0,0-.061-.726.569.569,0,0,0-.261-.365,1.238,1.238,0,0,0-.624-.12h-.389v5.321Z" transform="translate(2283.251 -2412.25)" fill="#6b6a7e"/>
    <path id="Path_64" data-name="Path 64" d="M-2272.664,2412.329h1.4l1.432,7.159h-1.211l-.282-1.653h-1.248l-.291,1.653h-1.229Zm1.192,4.676-.486-3.006-.487,3.006Z" transform="translate(2281.211 -2412.25)" fill="#6b6a7e"/>
    <path id="Path_65" data-name="Path 65" d="M-2264.281,2412.329h1.3v3.147l1.423-3.147h1.246l-1.37,3.191,1.512,3.968h-1.3l-1.194-3.253-.318.54v2.713h-1.3Z" transform="translate(2279.024 -2412.25)" fill="#6b6a7e"/>
    <path id="Path_66" data-name="Path 66" d="M-2254.558,2418.966a2.738,2.738,0,0,1-.478-1.745v-2.687a2.669,2.669,0,0,1,.478-1.724,1.943,1.943,0,0,1,1.59-.583,1.933,1.933,0,0,1,1.582.583,2.675,2.675,0,0,1,.477,1.724v2.687a2.732,2.732,0,0,1-.482,1.742,1.906,1.906,0,0,1-1.578.6A1.919,1.919,0,0,1-2254.558,2418.966Zm2.174-.64a1.681,1.681,0,0,0,.15-.795v-3.3a1.681,1.681,0,0,0-.145-.787.61.61,0,0,0-.588-.266.615.615,0,0,0-.592.271,1.63,1.63,0,0,0-.15.782v3.3a1.681,1.681,0,0,0,.15.795.613.613,0,0,0,.592.274A.6.6,0,0,0-2252.384,2418.326Z" transform="translate(2276.965 -2412.227)" fill="#6b6a7e"/>
    <path id="Path_67" data-name="Path 67" d="M-2244.517,2413.293h-1.193v-.964h3.667v.964h-1.175v6.2h-1.3Z" transform="translate(2274.887 -2412.25)" fill="#6b6a7e"/>
    <path id="Path_68" data-name="Path 68" d="M-2235.92,2412.329h1.4l1.431,7.159h-1.211l-.283-1.653h-1.247l-.292,1.653h-1.229Zm1.193,4.676-.486-3.006-.487,3.006Z" transform="translate(2273.025 -2412.25)" fill="#6b6a7e"/>
  </g>
  <g id="Group_37" data-name="Group 37" transform="translate(17.743 47.076)">
    <g id="Group_36" data-name="Group 36">
      <path id="Path_69" data-name="Path 69" d="M-2274.355,2434.927a.8.8,0,0,1-.67-.288,2.237,2.237,0,0,1-.3-1.083c-.032-.273-.063-.629-.095-1.069q-.555.167-1.117.349l-.269.745c-.054.142-.091.244-.111.3s-.06.152-.115.274a1.755,1.755,0,0,1-.143.266c-.039.054-.095.125-.166.209a.686.686,0,0,1-.218.183,1.335,1.335,0,0,1-.61.142.662.662,0,0,1-.527-.234.846.846,0,0,1-.2-.574,1.294,1.294,0,0,1,.016-.2q.1-.76,1.56-1.386.413-1.053,1.371-3.549a1.3,1.3,0,0,1,.641-.142h.361a1.185,1.185,0,0,1,.29.047q.007.372.364,4.618a1.508,1.508,0,0,0,.087.463.2.2,0,0,0,.19.107,1.076,1.076,0,0,0,.59-.3,3.234,3.234,0,0,0,.661-.752l.221.539-.189.253A2.224,2.224,0,0,1-2274.355,2434.927Zm-3.985-.943c0,.17.064.253.19.253.1,0,.172-.068.23-.205s.174-.406.317-.776Q-2278.339,2433.63-2278.34,2433.984Zm2.725-3.731-.689,1.926q.554-.19.824-.277Z" transform="translate(2278.902 -2428.876)" fill="#6b6a7e"/>
      <path id="Path_70" data-name="Path 70" d="M-2268.367,2428.977a1.092,1.092,0,0,1,.467-.09.823.823,0,0,1,.408.079q-.079.618-.254,1.94-.364,2.764-.364,3.046t.238.282a.6.6,0,0,0,.427-.257,2.455,2.455,0,0,0,.4-.844,1.174,1.174,0,0,1,.309.467,1.811,1.811,0,0,1-.9,1.22,1.2,1.2,0,0,1-.522.135.936.936,0,0,1-.943-.507,1.292,1.292,0,0,1-1.054.514,1.475,1.475,0,0,1-1.081-.435,1.545,1.545,0,0,1-.439-1.149,2.254,2.254,0,0,1,.609-1.656,2.078,2.078,0,0,1,1.545-.619h.048a1.929,1.929,0,0,1,.61.095l.237-2A.464.464,0,0,1-2268.367,2428.977Zm-1.027,2.745a.959.959,0,0,0-.8.384,2.092,2.092,0,0,0-.353,1.145,1.143,1.143,0,0,0-.008.135.951.951,0,0,0,.186.618.589.589,0,0,0,.479.23q.5,0,.753-.706l.206-1.7A1.279,1.279,0,0,0-2269.393,2431.722Z" transform="translate(2277.29 -2428.878)" fill="#6b6a7e"/>
      <path id="Path_71" data-name="Path 71" d="M-2263.061,2434.087a2.661,2.661,0,0,1-.714,1.049,1.554,1.554,0,0,1-1.057.408,1.049,1.049,0,0,1-.892-.392,1.45,1.45,0,0,1-.3-.9c0-.068,0-.137.009-.205l.27-2.259a1.527,1.527,0,0,1,.539-.095q.522,0,.523.388,0,.016-.131,1.058c-.087.694-.131,1.1-.131,1.208a.392.392,0,0,0,.436.451.731.731,0,0,0,.626-.419,3.538,3.538,0,0,0,.467-1.72h-.071a.751.751,0,0,1-.507-.15.536.536,0,0,1-.2-.42.534.534,0,0,1,.151-.4.641.641,0,0,1,.435-.158.719.719,0,0,1,.753.626,2.26,2.26,0,0,0,.341-.063v.451l-.293.047v.135A3.832,3.832,0,0,1-2263.061,2434.087Zm-.678-2c0,.09.077.135.23.135h.047c-.036-.142-.092-.214-.166-.214S-2263.739,2432.038-2263.739,2432.09Z" transform="translate(2276.032 -2429.469)" fill="#6b6a7e"/>
      <path id="Path_72" data-name="Path 72" d="M-2259.233,2433.38a.909.909,0,0,0,.242-.567.421.421,0,0,0-.147-.373.566.566,0,0,0-.321-.1.8.8,0,0,0-.654.416,1.726,1.726,0,0,0-.28.99,1.186,1.186,0,0,0,.273.856.909.909,0,0,0,.678.28,1.873,1.873,0,0,0,1.141-.411,3.094,3.094,0,0,0,.887-1.078,1.862,1.862,0,0,1,.317.413,3.377,3.377,0,0,1-.927,1.164,2.723,2.723,0,0,1-.787.451,2.584,2.584,0,0,1-.939.175,1.643,1.643,0,0,1-1.251-.483,1.874,1.874,0,0,1-.492-1.339,1.948,1.948,0,0,1,.614-1.426,2.015,2.015,0,0,1,1.469-.61,1.7,1.7,0,0,1,.991.265.856.856,0,0,1,.388.718,1.2,1.2,0,0,1-.486.989,2.988,2.988,0,0,1-1.335.531l-.11-.467A1.24,1.24,0,0,0-2259.233,2433.38Z" transform="translate(2275.024 -2429.514)" fill="#6b6a7e"/>
      <path id="Path_73" data-name="Path 73" d="M-2254.435,2434.66l.19-1.766a.561.561,0,0,0-.11-.356.44.44,0,0,0-.369-.142.535.535,0,0,0-.435.226,1.146,1.146,0,0,0-.225.565c-.19,1.448-.291,2.234-.3,2.362h-1.07l.436-3.731a2.2,2.2,0,0,1,.507-.088c.354,0,.538.13.555.388a1.287,1.287,0,0,1,.93-.38,1.254,1.254,0,0,1,.852.27.865.865,0,0,1,.308.682,3.268,3.268,0,0,1-.047.419q-.182,1.2-.183,1.4,0,.364.246.364.539,0,.816-1.125a1.439,1.439,0,0,1,.325.452q-.421,1.393-1.458,1.394a.872.872,0,0,1-.729-.3A1.013,1.013,0,0,1-2254.435,2434.66Z" transform="translate(2273.968 -2429.512)" fill="#6b6a7e"/>
      <path id="Path_74" data-name="Path 74" d="M-2249.669,2429.4q0,.048-.214,1.7h1.164v.61h-1.243l-.024.2a2.215,2.215,0,0,1,.927,1.7,1.3,1.3,0,0,1-.368,1.037,1.31,1.31,0,0,1-.884.317.947.947,0,0,1-.752-.273.973.973,0,0,1-.237-.662,1.28,1.28,0,0,1,.015-.189l.246-2.107-.032-.016h-.642c0-.052-.008-.138-.008-.257a.936.936,0,0,1,.072-.353h.682l.253-2.154a1.282,1.282,0,0,1,.444-.062C-2249.87,2428.887-2249.669,2429.057-2249.669,2429.4Zm.079,4.2a1.619,1.619,0,0,0-.475-1.076q-.143,1.178-.143,1.362c0,.238.077.356.229.356a.33.33,0,0,0,.277-.154A.839.839,0,0,0-2249.59,2433.6Z" transform="translate(2272.846 -2428.878)" fill="#6b6a7e"/>
      <path id="Path_75" data-name="Path 75" d="M-2244.353,2431.819q-.324,2.566-.325,2.732,0,.318.23.318a.65.65,0,0,0,.448-.282,2.077,2.077,0,0,0,.384-.843,1.523,1.523,0,0,1,.317.443,1.905,1.905,0,0,1-.578,1.085,1.293,1.293,0,0,1-.816.317.917.917,0,0,1-.927-.531,1.322,1.322,0,0,1-1.1.531,1.251,1.251,0,0,1-.879-.285.968.968,0,0,1-.309-.745,3.231,3.231,0,0,1,.04-.387q.182-1.474.278-2.344a1.351,1.351,0,0,1,.451-.088,2.16,2.16,0,0,1,.309.016.344.344,0,0,1,.2.119.419.419,0,0,1,.095.293l-.261,2.02a1.1,1.1,0,0,0-.016.174q0,.467.427.468a.771.771,0,0,0,.657-.389c0-.057,0-.15.016-.277l.261-2.107a.463.463,0,0,1,.238-.226,1.017,1.017,0,0,1,.456-.092A.812.812,0,0,1-2244.353,2431.819Z" transform="translate(2271.997 -2429.514)" fill="#6b6a7e"/>
      <path id="Path_76" data-name="Path 76" d="M-2240.324,2432.776q0-.347-.321-.347c-.215,0-.384.137-.51.411a1.924,1.924,0,0,1,.855,1.513,1.2,1.2,0,0,1-.341.926,1.206,1.206,0,0,1-.855.317.877.877,0,0,1-.753-.32,1.327,1.327,0,0,1-.238-.812c0-.1,0-.174.008-.223l.277-2.415a1.961,1.961,0,0,1,.578-.088c.322,0,.483.12.483.357v.016a1.013,1.013,0,0,1,.808-.373.858.858,0,0,1,.554.162.534.534,0,0,1,.2.432.548.548,0,0,1-.2.439.785.785,0,0,1-.527.171h-.032A.9.9,0,0,0-2240.324,2432.776Zm-.966.618q-.144,1.143-.144,1.15c0,.222.09.332.27.332.232,0,.348-.187.348-.561A1.311,1.311,0,0,0-2241.29,2433.394Z" transform="translate(2270.789 -2429.514)" fill="#6b6a7e"/>
      <path id="Path_77" data-name="Path 77" d="M-2236.322,2433.38a.909.909,0,0,0,.242-.567.423.423,0,0,0-.146-.373.567.567,0,0,0-.321-.1.793.793,0,0,0-.653.416,1.724,1.724,0,0,0-.281.99,1.185,1.185,0,0,0,.274.856.9.9,0,0,0,.677.28,1.875,1.875,0,0,0,1.141-.411,3.087,3.087,0,0,0,.887-1.078,1.855,1.855,0,0,1,.317.413,3.352,3.352,0,0,1-.927,1.164,2.72,2.72,0,0,1-.787.451,2.583,2.583,0,0,1-.939.175,1.646,1.646,0,0,1-1.252-.483,1.877,1.877,0,0,1-.491-1.339,1.95,1.95,0,0,1,.614-1.426,2.015,2.015,0,0,1,1.47-.61,1.7,1.7,0,0,1,.99.265.857.857,0,0,1,.388.718,1.2,1.2,0,0,1-.487.989,2.988,2.988,0,0,1-1.335.531l-.111-.467A1.24,1.24,0,0,0-2236.322,2433.38Z" transform="translate(2269.919 -2429.514)" fill="#6b6a7e"/>
    </g>
  </g>
  <g id="Group_38" data-name="Group 38" transform="translate(30.082 56.555)">
    <path id="Path_78" data-name="Path 78" d="M-2262.41,2441.884a1.8,1.8,0,0,1-.361.113c-.167.049-.253.076-.256.079v-.509a3.282,3.282,0,0,0,.431-.19,1.116,1.116,0,0,0,.343-.249h.527v3.995h-.685Z" transform="translate(2263.026 -2441.085)" fill="#6b6a7e"/>
    <path id="Path_79" data-name="Path 79" d="M-2259.223,2444.911a1.1,1.1,0,0,1-.249-.758v-.059h.656a.855.855,0,0,0,.072.41.293.293,0,0,0,.278.124.272.272,0,0,0,.269-.186,1.86,1.86,0,0,0,.076-.638v-.473a.445.445,0,0,1-.212.183.827.827,0,0,1-.341.064q-.837,0-.838-1.174a1.673,1.673,0,0,1,.249-.979.9.9,0,0,1,.791-.352.915.915,0,0,1,.79.348,1.554,1.554,0,0,1,.256.939v1.415a1.91,1.91,0,0,1-.234,1.021.887.887,0,0,1-.812.37A.992.992,0,0,1-2259.223,2444.911Zm1.1-2.069v-.621a1.13,1.13,0,0,0-.076-.458.276.276,0,0,0-.274-.169.274.274,0,0,0-.273.181,1.385,1.385,0,0,0-.077.525,3.688,3.688,0,0,0,.018.422.457.457,0,0,0,.093.244.3.3,0,0,0,.244.093A.382.382,0,0,0-2258.121,2442.843Z" transform="translate(2262.243 -2441.072)" fill="#6b6a7e"/>
    <path id="Path_80" data-name="Path 80" d="M-2255.346,2444.88a1.534,1.534,0,0,1-.219-.9h.666a1.36,1.36,0,0,0,.074.513.286.286,0,0,0,.291.173.283.283,0,0,0,.241-.106.59.59,0,0,0,.1-.287,4.133,4.133,0,0,0,.023-.5,1.688,1.688,0,0,0-.074-.582.3.3,0,0,0-.306-.187.32.32,0,0,0-.234.094.548.548,0,0,0-.141.256h-.587l.04-2.224h1.794v.612h-1.222l-.04.961a.574.574,0,0,1,.242-.151,1.023,1.023,0,0,1,.345-.056.69.69,0,0,1,.629.323,1.693,1.693,0,0,1,.2.909,3.015,3.015,0,0,1-.086.775.928.928,0,0,1-.314.5.989.989,0,0,1-.641.184A.911.911,0,0,1-2255.346,2444.88Z" transform="translate(2261.364 -2441.085)" fill="#6b6a7e"/>
    <path id="Path_81" data-name="Path 81" d="M-2250.678,2441.653h-1.08v-.524h1.75v.414l-.808,3.581h-.661Z" transform="translate(2260.515 -2441.085)" fill="#6b6a7e"/>
  </g>
  <g id="Group_39" data-name="Group 39" transform="translate(0)">
    <path id="Path_82" data-name="Path 82" d="M-2235.395,2398.4v-10.914a3.931,3.931,0,0,0-1.829-3.15l-27.318-15.589h0a3.751,3.751,0,0,0-1.823-.437,3.746,3.746,0,0,0-1.826.438l-27.269,15.588a3.932,3.932,0,0,0-1.828,3.151V2398.4h-4.443v15.01l4.443,3.969v1.938a3.934,3.934,0,0,0,1.828,3.148l27.32,15.59a3.739,3.739,0,0,0,1.823.435,3.727,3.727,0,0,0,1.824-.437l27.271-15.587a3.932,3.932,0,0,0,1.827-3.15v-1.8l4.6-4.111h.012V2398.4Zm-60.867-10.914a2.979,2.979,0,0,1,1.311-2.26l27.271-15.585a2.712,2.712,0,0,1,1.316-.3,2.737,2.737,0,0,1,1.313.3l27.319,15.589a2.976,2.976,0,0,1,1.313,2.259V2398.4h-2.167v-9.379a3.354,3.354,0,0,0-1.549-2.666l-24.682-14.085a3.158,3.158,0,0,0-1.543-.367,3.145,3.145,0,0,0-1.548.368l-24.638,14.083a3.364,3.364,0,0,0-1.548,2.667v9.379h-2.166Zm55.994,10.914-8.877-11.073-3.672,6.505,4.164-.732-3.488,5.3h-13.782l14.529-10.013-8-10.268-4.668,7.746,5.91-1.169-8.714,9.1,6.686-1.864-5.972,6.469h-10.906l14.743-17.814-10.086,10.157-1.242-1.7-2.974,3.973,3.327-.459-3.814,5.842h-6.649l7.79-7.986-6.778,4.914-2.375-1.241.695,4.313h-4.926l3.437-3.922-6.887,3.922h-.784v-9.379a2.881,2.881,0,0,1,1.289-2.221l24.638-14.082a2.665,2.665,0,0,1,1.293-.3,2.659,2.659,0,0,1,1.289.3l.129-.223-.128.223,24.683,14.083a2.88,2.88,0,0,1,1.289,2.22v9.379Zm-60.44,1.025h68.9v12.959h-68.9Zm7.125,13.985h54.482v4.372a2.876,2.876,0,0,1-1.289,2.221l-24.639,14.084a2.707,2.707,0,0,1-1.291.3,2.7,2.7,0,0,1-1.291-.3L-2292.293,2420a2.874,2.874,0,0,1-1.29-2.22Zm55.851,8.165-27.27,15.588a2.757,2.757,0,0,1-1.315.3,2.761,2.761,0,0,1-1.315-.3l-27.318-15.589a2.974,2.974,0,0,1-1.312-2.258v-5.908h2.166v4.372a3.362,3.362,0,0,0,1.548,2.666l24.684,14.085a3.194,3.194,0,0,0,1.544.365,3.208,3.208,0,0,0,1.546-.365l24.638-14.083a3.36,3.36,0,0,0,1.548-2.667v-4.372h2.167v5.908A2.977,2.977,0,0,1-2237.732,2421.57Z" transform="translate(2301.732 -2368.305)" fill="#6b6a7e"/>
  </g>
</svg>
