<svg xmlns="http://www.w3.org/2000/svg" width="108.705" height="55.263" viewBox="0 0 108.705 55.263">
  <g id="Group_9" data-name="Group 9" transform="translate(0 0)">
    <g id="Group_8" data-name="Group 8" transform="translate(0)">
      <g id="Group_1" data-name="Group 1" transform="translate(57.904 12.679)">
        <path id="Path_1" data-name="Path 1" d="M-2451.519,2422.634s-.152,1.183,2.821,2.873,6.263,3.407,9.483,5.487c1.517.937,3.687,2.513,8.685,1.575s11.981-1.5,27.609-15.042c1.154-1.011,2.4-2.123,2.116-2.517s-.731-.012-1.69.787-13.539,9.609-20.158,12.119c-1.789.692-3.037.89-3.243-.229a3.251,3.251,0,0,1,1.965-3.092c1.254-.623,9.635-4.591,15.916-18.047.921-2.188,1.649-6.646.837-7.009,0,0-.308-.221-.556.847a22.888,22.888,0,0,1-2.1,6.336c-1.274,2.128-7.433,12.879-14.817,14.622-1.129.081-2.413,0-3.162-2.324s-1.537-4.511-2.18-6.63a18.7,18.7,0,0,1,.637-9.78,23.574,23.574,0,0,0,1.434-6.084c.271-1.365.54-2.194.378-2.283s-.22.03-.343.365-1.038,2.829-1.728,4.234-3.263,5.74-3.364,10.635,3.176,9.458,3.395,13.014-.774,6.473-3.623,6.457a8.244,8.244,0,0,1-5.513-1.781c-.616-.677-.293-1.295.332-1.423s2.826-.7,2.826-.7.717-.113.665-.653a5.833,5.833,0,0,0-.169-.953s.041-.436-.959-.114a14.975,14.975,0,0,1-2.523.56,17.986,17.986,0,0,1-2.7.351,12.888,12.888,0,0,1-4.295-1.537c-1.653-.933-3.729-2.105-4.286-2.961s-1.581-1.4-1.682-.608S-2451.519,2422.634-2451.519,2422.634Z" transform="translate(2451.564 -2394.216)" fill="#6b6a7e"/>
      </g>
      <g id="Group_2" data-name="Group 2" transform="translate(0 12.679)">
        <path id="Path_2" data-name="Path 2" d="M-2475.313,2422.634s.152,1.183-2.821,2.873-6.263,3.407-9.483,5.487c-1.516.937-3.686,2.513-8.685,1.575s-11.981-1.5-27.608-15.042c-1.156-1.011-2.405-2.123-2.116-2.517s.729-.012,1.689.787,13.538,9.609,20.158,12.119c1.789.692,3.038.89,3.242-.229a3.252,3.252,0,0,0-1.964-3.092c-1.254-.623-9.636-4.591-15.916-18.047-.921-2.188-1.649-6.646-.837-7.009,0,0,.309-.221.558.847a22.906,22.906,0,0,0,2.1,6.336c1.276,2.128,7.436,12.879,14.818,14.622,1.13.081,2.414,0,3.163-2.324s1.536-4.511,2.18-6.63a18.709,18.709,0,0,0-.638-9.78,23.547,23.547,0,0,1-1.432-6.084c-.271-1.365-.543-2.194-.38-2.283s.22.03.345.365,1.037,2.829,1.726,4.234,3.264,5.74,3.364,10.635-3.176,9.458-3.395,13.014.774,6.473,3.622,6.457a8.245,8.245,0,0,0,5.512-1.781c.617-.677.293-1.295-.331-1.423s-2.826-.7-2.826-.7-.718-.113-.667-.653a5.908,5.908,0,0,1,.169-.953s-.041-.436.96-.114a14.992,14.992,0,0,0,2.523.56,17.991,17.991,0,0,0,2.7.351,12.89,12.89,0,0,0,4.3-1.537c1.651-.933,3.727-2.105,4.286-2.961s1.58-1.4,1.682-.608S-2475.313,2422.634-2475.313,2422.634Z" transform="translate(2526.068 -2394.216)" fill="#6b6a7e"/>
      </g>
      <g id="Group_3" data-name="Group 3" transform="translate(36.539 13.794)">
        <path id="Path_3" data-name="Path 3" d="M-2478.254,2407.684a5.644,5.644,0,0,1-.8-3.276v-4.316a5.572,5.572,0,0,1,.825-3.323,3.3,3.3,0,0,1,2.84-1.119,3.459,3.459,0,0,1,2.728.944,4.152,4.152,0,0,1,.825,2.8v.665h-2.237v-.728a5.6,5.6,0,0,0-.087-1.111,1.061,1.061,0,0,0-.365-.634,1.315,1.315,0,0,0-.832-.222,1.187,1.187,0,0,0-.872.286,1.374,1.374,0,0,0-.373.73,6.166,6.166,0,0,0-.088,1.157v5.379a3.529,3.529,0,0,0,.294,1.634,1.139,1.139,0,0,0,1.1.539,1.144,1.144,0,0,0,1.1-.57,3.712,3.712,0,0,0,.31-1.714V2403.6h-1.381v-1.476h3.49v6.521h-1.524l-.158-1.252a2.177,2.177,0,0,1-2.174,1.427A2.99,2.99,0,0,1-2478.254,2407.684Z" transform="translate(2479.055 -2395.65)" fill="#6b6a7e"/>
        <path id="Path_4" data-name="Path 4" d="M-2463.6,2395.834h2.506l2.57,12.85h-2.173l-.508-2.966h-2.237l-.523,2.966h-2.206Zm2.141,8.393-.872-5.395-.873,5.395Z" transform="translate(2476.185 -2395.691)" fill="#6b6a7e"/>
        <path id="Path_5" data-name="Path 5" d="M-2452.174,2397.564h-2.142v-1.73h6.583v1.73h-2.109v11.12h-2.332Z" transform="translate(2473.543 -2395.691)" fill="#6b6a7e"/>
        <path id="Path_6" data-name="Path 6" d="M-2441.941,2407.834a4.627,4.627,0,0,1-.944-2.935l2.015-.4a4.44,4.44,0,0,0,.388,1.865,1.133,1.133,0,0,0,1.07.642.97.97,0,0,0,.8-.325,1.363,1.363,0,0,0,.262-.88,2.3,2.3,0,0,0-.341-1.286,6.2,6.2,0,0,0-1.071-1.173l-1.618-1.413a5.032,5.032,0,0,1-1.118-1.372,3.687,3.687,0,0,1-.373-1.739,3.043,3.043,0,0,1,.889-2.347,3.474,3.474,0,0,1,2.459-.825,2.776,2.776,0,0,1,2.363.944,4.685,4.685,0,0,1,.825,2.547l-2.015.348a4.743,4.743,0,0,0-.277-1.571.882.882,0,0,0-.9-.539,1.1,1.1,0,0,0-.849.333,1.229,1.229,0,0,0-.31.873,1.924,1.924,0,0,0,.254,1.031,4.432,4.432,0,0,0,.793.9l1.6,1.411a7.039,7.039,0,0,1,1.412,1.682,4,4,0,0,1,.508,2.046,3.247,3.247,0,0,1-.405,1.634,2.875,2.875,0,0,1-1.133,1.118,3.409,3.409,0,0,1-1.683.405A3.286,3.286,0,0,1-2441.941,2407.834Z" transform="translate(2470.996 -2395.65)" fill="#6b6a7e"/>
      </g>
      <g id="Group_5" data-name="Group 5" transform="translate(49.189 31.223)">
        <g id="Group_4" data-name="Group 4">
          <path id="Path_7" data-name="Path 7" d="M-2462.778,2418.1h1.02v2.543h-.487v-2.115h-.533Z" transform="translate(2462.778 -2418.082)" fill="#6b6a7e"/>
          <path id="Path_8" data-name="Path 8" d="M-2459.818,2420.22a1.034,1.034,0,0,0,.291.042.6.6,0,0,0,.512-.226.986.986,0,0,0,.164-.624.651.651,0,0,1-.269.25.866.866,0,0,1-.4.088.792.792,0,0,1-.591-.221.815.815,0,0,1-.218-.6.9.9,0,0,1,.11-.453.762.762,0,0,1,.314-.3,1.03,1.03,0,0,1,.477-.1,1.016,1.016,0,0,1,.557.149.95.95,0,0,1,.359.427,1.618,1.618,0,0,1,.125.665,1.732,1.732,0,0,1-.136.708,1.07,1.07,0,0,1-.387.47,1.034,1.034,0,0,1-.584.165,1.566,1.566,0,0,1-.4-.054,1.51,1.51,0,0,1-.368-.145l.189-.359A.934.934,0,0,0-2459.818,2420.22Zm.065-1.614a.425.425,0,0,0-.131.331.417.417,0,0,0,.123.319.476.476,0,0,0,.338.116.505.505,0,0,0,.367-.129.419.419,0,0,0,.13-.322.418.418,0,0,0-.122-.3.475.475,0,0,0-.361-.131A.485.485,0,0,0-2459.752,2418.606Z" transform="translate(2462.233 -2418.076)" fill="#6b6a7e"/>
          <path id="Path_9" data-name="Path 9" d="M-2455.3,2418.255a.588.588,0,0,1,.23.488.557.557,0,0,1-.094.316.64.64,0,0,1-.261.221.778.778,0,0,1,.354.254.644.644,0,0,1,.128.392.651.651,0,0,1-.12.389.753.753,0,0,1-.344.256,1.414,1.414,0,0,1-.521.089,1.417,1.417,0,0,1-.521-.089.775.775,0,0,1-.343-.252.634.634,0,0,1-.12-.385.629.629,0,0,1,.134-.4.794.794,0,0,1,.371-.256.7.7,0,0,1-.278-.233.561.561,0,0,1-.1-.323.563.563,0,0,1,.231-.473,1,1,0,0,1,.623-.177A1,1,0,0,1-2455.3,2418.255Zm-1.016,1.339a.335.335,0,0,0-.137.287.352.352,0,0,0,.137.295.634.634,0,0,0,.389.1.638.638,0,0,0,.387-.1.342.342,0,0,0,.14-.293.338.338,0,0,0-.14-.288.642.642,0,0,0-.39-.1A.635.635,0,0,0-2456.315,2419.594Zm.061-1.079a.3.3,0,0,0-.118.255.3.3,0,0,0,.118.253.524.524,0,0,0,.328.091.521.521,0,0,0,.327-.091.3.3,0,0,0,.116-.253.3.3,0,0,0-.116-.255.521.521,0,0,0-.327-.091A.524.524,0,0,0-2456.254,2418.515Z" transform="translate(2461.471 -2418.076)" fill="#6b6a7e"/>
          <path id="Path_10" data-name="Path 10" d="M-2453.653,2418.1h1.962v.363l-1.047,2.18h-.515l1.013-2.118h-.977l0,.36h-.432Z" transform="translate(2460.745 -2418.082)" fill="#6b6a7e"/>
        </g>
      </g>
      <g id="Group_6" data-name="Group 6" transform="translate(41.744 51.566)">
        <path id="Path_11" data-name="Path 11" d="M-2469.851,2444.552a.771.771,0,0,1,.332.658.806.806,0,0,1-.167.511.806.806,0,0,1-.461.285.928.928,0,0,1,.563.309.905.905,0,0,1,.2.6.856.856,0,0,1-.358.728,1.609,1.609,0,0,1-.975.264h-1.645v-3.6h1.6A1.514,1.514,0,0,1-2469.851,2444.552Zm-.524,1.111a.394.394,0,0,0,.151-.33.376.376,0,0,0-.151-.319.677.677,0,0,0-.419-.108h-.874v.875h.874A.669.669,0,0,0-2470.375,2445.663Zm.095,1.527a.416.416,0,0,0,.186-.36.4.4,0,0,0-.186-.348.882.882,0,0,0-.514-.12h-.874v.951h.874A.865.865,0,0,0-2470.28,2447.19Z" transform="translate(2472.357 -2444.264)" fill="#6b6a7e"/>
        <path id="Path_12" data-name="Path 12" d="M-2464.471,2447.909l-.319-.76h-1.758l-.319.76h-.715l1.578-3.6h.715l1.557,3.6Zm-1.83-1.352h1.265l-.626-1.511Z" transform="translate(2471.293 -2444.264)" fill="#6b6a7e"/>
        <path id="Path_13" data-name="Path 13" d="M-2459.15,2447.909l-.623-1.064a1.168,1.168,0,0,1-.128.006h-.812v1.058h-.689v-3.6h1.5a1.616,1.616,0,0,1,1.08.325,1.133,1.133,0,0,1,.381.915,1.349,1.349,0,0,1-.183.72,1.105,1.105,0,0,1-.532.446l.791,1.193Zm-1.563-1.665h.812a.915.915,0,0,0,.6-.17.612.612,0,0,0,.205-.5.593.593,0,0,0-.205-.493.934.934,0,0,0-.6-.164h-.812Z" transform="translate(2469.916 -2444.264)" fill="#6b6a7e"/>
        <path id="Path_14" data-name="Path 14" d="M-2453.708,2447.909l-.622-1.064a1.175,1.175,0,0,1-.128.006h-.812v1.058h-.689v-3.6h1.5a1.62,1.62,0,0,1,1.081.325,1.142,1.142,0,0,1,.38.915,1.358,1.358,0,0,1-.183.72,1.115,1.115,0,0,1-.532.446l.791,1.193Zm-1.562-1.665h.812a.919.919,0,0,0,.6-.17.614.614,0,0,0,.205-.5.6.6,0,0,0-.205-.493.938.938,0,0,0-.6-.164h-.812Z" transform="translate(2468.703 -2444.264)" fill="#6b6a7e"/>
        <path id="Path_15" data-name="Path 15" d="M-2447.987,2444.494a1.792,1.792,0,0,1,.692.663,1.791,1.791,0,0,1,.253.936,1.805,1.805,0,0,1-.253.938,1.829,1.829,0,0,1-.692.671,1.952,1.952,0,0,1-.974.247,1.949,1.949,0,0,1-.974-.247,1.837,1.837,0,0,1-.691-.671,1.8,1.8,0,0,1-.252-.938,1.781,1.781,0,0,1,.252-.936,1.8,1.8,0,0,1,.691-.663,1.977,1.977,0,0,1,.974-.243A1.98,1.98,0,0,1-2447.987,2444.494Zm-1.575.537a1.208,1.208,0,0,0-.447.442,1.2,1.2,0,0,0-.164.62,1.2,1.2,0,0,0,.166.622,1.25,1.25,0,0,0,.447.448,1.183,1.183,0,0,0,.609.164,1.164,1.164,0,0,0,.6-.164,1.224,1.224,0,0,0,.439-.448,1.227,1.227,0,0,0,.162-.622,1.214,1.214,0,0,0-.162-.62,1.2,1.2,0,0,0-.439-.442,1.171,1.171,0,0,0-.6-.162A1.206,1.206,0,0,0-2449.562,2445.031Z" transform="translate(2467.571 -2444.251)" fill="#6b6a7e"/>
        <path id="Path_16" data-name="Path 16" d="M-2441.993,2444.31h.669v3.6h-.653l-1.851-2.477v2.477h-.674v-3.6h.653l1.856,2.484Z" transform="translate(2466.151 -2444.264)" fill="#6b6a7e"/>
      </g>
      <g id="Group_7" data-name="Group 7" transform="translate(30.488)">
        <path id="Path_17" data-name="Path 17" d="M-2486.84,2387.969l1.878-1.394.333.459-1.353,1,.545.735,1.233-.914.337.456-1.233.913.8,1.077-.521.386Z" transform="translate(2486.84 -2379.835)" fill="#6b6a7e"/>
        <path id="Path_18" data-name="Path 18" d="M-2480.662,2384.225a1.7,1.7,0,0,1,.877.211,1.7,1.7,0,0,1,.649.642,1.7,1.7,0,0,1,.24.884,1.726,1.726,0,0,1-.244.874,1.829,1.829,0,0,1-.676.662,1.833,1.833,0,0,1-.909.262,1.723,1.723,0,0,1-.882-.219,1.7,1.7,0,0,1-.65-.644,1.686,1.686,0,0,1-.239-.881,1.709,1.709,0,0,1,.249-.868,1.887,1.887,0,0,1,.678-.658A1.863,1.863,0,0,1-2480.662,2384.225Zm-1.028,1.184a1.149,1.149,0,0,0-.154.572,1.122,1.122,0,0,0,.16.581,1.127,1.127,0,0,0,.43.428,1.174,1.174,0,0,0,.577.152,1.119,1.119,0,0,0,.574-.156,1.082,1.082,0,0,0,.412-.419,1.145,1.145,0,0,0,.145-.573,1.167,1.167,0,0,0-.163-.583,1.141,1.141,0,0,0-.426-.427,1.125,1.125,0,0,0-.567-.151,1.111,1.111,0,0,0-.566.153A1.14,1.14,0,0,0-2481.689,2385.409Z" transform="translate(2485.872 -2379.311)" fill="#6b6a7e"/>
        <path id="Path_19" data-name="Path 19" d="M-2475.278,2381.646a1.682,1.682,0,0,1,.844.32,1.68,1.68,0,0,1,.565.717,1.685,1.685,0,0,1,.129.906,1.732,1.732,0,0,1-.351.837,1.838,1.838,0,0,1-.751.573,1.838,1.838,0,0,1-.936.148,1.72,1.72,0,0,1-.847-.326,1.685,1.685,0,0,1-.565-.718,1.681,1.681,0,0,1-.129-.9,1.708,1.708,0,0,1,.354-.831,1.874,1.874,0,0,1,.754-.569A1.881,1.881,0,0,1-2475.278,2381.646Zm-1.166,1.049a1.14,1.14,0,0,0-.223.549,1.126,1.126,0,0,0,.087.6,1.119,1.119,0,0,0,.375.476,1.173,1.173,0,0,0,.554.222,1.1,1.1,0,0,0,.587-.083,1.069,1.069,0,0,0,.46-.365,1.141,1.141,0,0,0,.216-.55,1.162,1.162,0,0,0-.09-.6,1.152,1.152,0,0,0-.37-.477,1.132,1.132,0,0,0-.544-.22,1.113,1.113,0,0,0-.582.082A1.165,1.165,0,0,0-2476.444,2382.694Z" transform="translate(2484.722 -2378.734)" fill="#6b6a7e"/>
        <path id="Path_20" data-name="Path 20" d="M-2469.642,2379.8a1.57,1.57,0,0,1,.771.407,1.717,1.717,0,0,1,.461.779,1.683,1.683,0,0,1,.019.9,1.608,1.608,0,0,1-.446.756,1.933,1.933,0,0,1-.829.464l-1.331.382-.933-3.259,1.354-.388A1.9,1.9,0,0,1-2469.642,2379.8Zm.354,2.458a1.015,1.015,0,0,0,.264-.488,1.175,1.175,0,0,0-.024-.6,1.169,1.169,0,0,0-.3-.521,1.029,1.029,0,0,0-.494-.276,1.145,1.145,0,0,0-.587.02l-.721.208.619,2.158.745-.213A1.122,1.122,0,0,0-2469.288,2382.262Z" transform="translate(2483.518 -2378.317)" fill="#6b6a7e"/>
        <path id="Path_21" data-name="Path 21" d="M-2461.784,2378.821a1.132,1.132,0,0,0-.507-.059,1.134,1.134,0,0,0-.555.215,1.089,1.089,0,0,0-.362.458,1.148,1.148,0,0,0-.082.592,1.146,1.146,0,0,0,.215.557,1.1,1.1,0,0,0,.457.367,1.109,1.109,0,0,0,.59.085,1.182,1.182,0,0,0,.471-.161,1.4,1.4,0,0,0,.4-.343l.428.379a1.992,1.992,0,0,1-.567.5,1.755,1.755,0,0,1-.693.239,1.787,1.787,0,0,1-.917-.129,1.7,1.7,0,0,1-.707-.554,1.732,1.732,0,0,1-.332-.852,1.682,1.682,0,0,1,.135-.9,1.723,1.723,0,0,1,.57-.694,1.832,1.832,0,0,1,.877-.329,1.805,1.805,0,0,1,.723.062,1.748,1.748,0,0,1,.638.331l-.321.514A1.276,1.276,0,0,0-2461.784,2378.821Z" transform="translate(2481.743 -2377.963)" fill="#6b6a7e"/>
        <path id="Path_22" data-name="Path 22" d="M-2456.111,2378.131a1.7,1.7,0,0,1,.65.625,1.7,1.7,0,0,1,.235.882,1.7,1.7,0,0,1-.239.883,1.73,1.73,0,0,1-.652.631,1.851,1.851,0,0,1-.919.23,1.845,1.845,0,0,1-.916-.234,1.733,1.733,0,0,1-.65-.634,1.7,1.7,0,0,1-.236-.884,1.69,1.69,0,0,1,.239-.881,1.707,1.707,0,0,1,.653-.624,1.868,1.868,0,0,1,.918-.224A1.865,1.865,0,0,1-2456.111,2378.131Zm-1.485.5a1.13,1.13,0,0,0-.422.416,1.136,1.136,0,0,0-.156.583,1.132,1.132,0,0,0,.156.586,1.164,1.164,0,0,0,.421.422,1.1,1.1,0,0,0,.573.156,1.093,1.093,0,0,0,.567-.153,1.138,1.138,0,0,0,.414-.42,1.153,1.153,0,0,0,.154-.586,1.147,1.147,0,0,0-.151-.584,1.125,1.125,0,0,0-.414-.417,1.1,1.1,0,0,0-.566-.155A1.143,1.143,0,0,0-2457.6,2378.634Z" transform="translate(2480.601 -2377.902)" fill="#6b6a7e"/>
        <path id="Path_23" data-name="Path 23" d="M-2452.367,2378.087l.734.1.818,2.315,1.4-2.013.734.1-.458,3.358-.59-.081.33-2.408-1.328,1.92-.413-.057-.769-2.206-.329,2.408-.585-.08Z" transform="translate(2479.261 -2377.943)" fill="#6b6a7e"/>
        <path id="Path_24" data-name="Path 24" d="M-2443.335,2380.142a1.081,1.081,0,0,1,.115.923,1.161,1.161,0,0,1-.573.781,1.409,1.409,0,0,1-1.039.055l-.716-.193-.259.964-.627-.169.88-3.273,1.342.361A1.462,1.462,0,0,1-2443.335,2380.142Zm-.8,1.19a.575.575,0,0,0,.313-.407.558.558,0,0,0-.069-.5.9.9,0,0,0-.5-.3l-.683-.184-.326,1.211.683.184A.884.884,0,0,0-2444.131,2381.332Z" transform="translate(2477.838 -2378.198)" fill="#6b6a7e"/>
        <path id="Path_25" data-name="Path 25" d="M-2439.842,2384.79l-.02-.777-1.544-.6-.539.56-.628-.243,2.611-2.625.628.244.143,3.69Zm-1.146-1.811,1.111.431-.037-1.541Z" transform="translate(2476.977 -2378.616)" fill="#6b6a7e"/>
        <path id="Path_26" data-name="Path 26" d="M-2433.492,2383.947l.555.3-1.6,2.989-.542-.29-.437-2.88-1.1,2.057-.56-.3,1.6-2.99.542.29.438,2.887Z" transform="translate(2475.774 -2379)" fill="#6b6a7e"/>
        <path id="Path_27" data-name="Path 27" d="M-2427.976,2387.295l-2.314,1.173-.63.912-.534-.368.617-.893.272-2.614.542.375-.145,1.836,1.655-.793Z" transform="translate(2474.5 -2379.596)" fill="#6b6a7e"/>
      </g>
    </g>
  </g>
</svg>
