<svg id="Group_34" data-name="Group 34" xmlns="http://www.w3.org/2000/svg" width="79.853" height="80.904" viewBox="0 0 79.853 80.904">
  <g id="Group_33" data-name="Group 33" transform="translate(0 0)">
    <g id="Group_22" data-name="Group 22" transform="translate(32.329 52.829)">
      <path id="Path_51" data-name="Path 51" d="M-1664.856,2430.523a2.424,2.424,0,0,1-.507.159c-.235.07-.357.107-.361.111v-.715a4.893,4.893,0,0,0,.608-.267,1.567,1.567,0,0,0,.483-.351h.744v5.628h-.966Z" transform="translate(1665.724 -2429.398)" fill="#6b6a7e"/>
      <path id="Path_52" data-name="Path 52" d="M-1660.365,2434.789a1.547,1.547,0,0,1-.351-1.067v-.084h.925a1.223,1.223,0,0,0,.1.578.413.413,0,0,0,.392.173.38.38,0,0,0,.378-.26,2.6,2.6,0,0,0,.107-.9v-.667a.621.621,0,0,1-.3.257,1.148,1.148,0,0,1-.479.091q-1.181,0-1.181-1.654a2.362,2.362,0,0,1,.35-1.379,1.274,1.274,0,0,1,1.116-.5,1.289,1.289,0,0,1,1.111.49,2.178,2.178,0,0,1,.362,1.323v1.994a2.665,2.665,0,0,1-.331,1.438,1.246,1.246,0,0,1-1.142.522A1.394,1.394,0,0,1-1660.365,2434.789Zm1.552-2.915V2431a1.574,1.574,0,0,0-.107-.646.389.389,0,0,0-.385-.237.388.388,0,0,0-.385.254,1.974,1.974,0,0,0-.108.739,5.523,5.523,0,0,0,.024.595.658.658,0,0,0,.132.344.421.421,0,0,0,.344.131A.535.535,0,0,0-1658.812,2431.875Z" transform="translate(1664.62 -2429.38)" fill="#6b6a7e"/>
      <path id="Path_53" data-name="Path 53" d="M-1654.9,2434.745a2.158,2.158,0,0,1-.309-1.268h.937a1.908,1.908,0,0,0,.1.722.4.4,0,0,0,.41.243.391.391,0,0,0,.34-.149.823.823,0,0,0,.143-.4,6.068,6.068,0,0,0,.032-.706,2.372,2.372,0,0,0-.1-.82.417.417,0,0,0-.431-.264.454.454,0,0,0-.329.132.769.769,0,0,0-.2.361h-.827l.055-3.134h2.529v.861h-1.723l-.055,1.355a.806.806,0,0,1,.34-.212,1.443,1.443,0,0,1,.487-.078.974.974,0,0,1,.885.454,2.386,2.386,0,0,1,.288,1.282,4.173,4.173,0,0,1-.121,1.091,1.308,1.308,0,0,1-.441.7,1.4,1.4,0,0,1-.9.257A1.282,1.282,0,0,1-1654.9,2434.745Z" transform="translate(1663.381 -2429.398)" fill="#6b6a7e"/>
      <path id="Path_54" data-name="Path 54" d="M-1648.325,2430.2h-1.521v-.737h2.467v.584l-1.14,5.044h-.93Z" transform="translate(1662.186 -2429.398)" fill="#6b6a7e"/>
    </g>
    <g id="Group_23" data-name="Group 23" transform="translate(24.566 33.236)">
      <path id="Path_55" data-name="Path 55" d="M-1674.886,2416.585a5.825,5.825,0,0,1-.826-3.381v-4.452a5.748,5.748,0,0,1,.85-3.429,3.407,3.407,0,0,1,2.93-1.154,3.57,3.57,0,0,1,2.815.974,4.279,4.279,0,0,1,.852,2.889v.687h-2.308v-.752a5.868,5.868,0,0,0-.089-1.146,1.105,1.105,0,0,0-.378-.655,1.357,1.357,0,0,0-.858-.229,1.228,1.228,0,0,0-.9.294,1.438,1.438,0,0,0-.385.754,6.438,6.438,0,0,0-.089,1.195v5.549a3.648,3.648,0,0,0,.3,1.685,1.177,1.177,0,0,0,1.139.557,1.179,1.179,0,0,0,1.137-.588,3.834,3.834,0,0,0,.319-1.768v-1.244h-1.425v-1.522h3.6v6.727h-1.572l-.165-1.292a2.242,2.242,0,0,1-2.242,1.472A3.083,3.083,0,0,1-1674.886,2416.585Z" transform="translate(1675.712 -2404.17)" fill="#6b6a7e"/>
      <path id="Path_56" data-name="Path 56" d="M-1661.88,2404.359h2.587l2.652,13.258h-2.243l-.523-3.061h-2.309l-.54,3.061h-2.274Zm2.21,8.659-.9-5.565-.9,5.565Z" transform="translate(1673.221 -2404.212)" fill="#6b6a7e"/>
      <path id="Path_57" data-name="Path 57" d="M-1652.191,2406.143h-2.21v-1.784h6.792v1.784h-2.176v11.474h-2.406Z" transform="translate(1670.964 -2404.212)" fill="#6b6a7e"/>
      <path id="Path_58" data-name="Path 58" d="M-1643.739,2416.74a4.779,4.779,0,0,1-.974-3.029l2.078-.409a4.6,4.6,0,0,0,.4,1.924,1.169,1.169,0,0,0,1.105.662,1,1,0,0,0,.826-.336,1.409,1.409,0,0,0,.271-.908,2.379,2.379,0,0,0-.352-1.326,6.45,6.45,0,0,0-1.105-1.211l-1.669-1.457a5.166,5.166,0,0,1-1.154-1.415,3.8,3.8,0,0,1-.384-1.792,3.144,3.144,0,0,1,.916-2.423,3.588,3.588,0,0,1,2.538-.851,2.861,2.861,0,0,1,2.437.974,4.819,4.819,0,0,1,.852,2.627l-2.078.36a4.913,4.913,0,0,0-.287-1.621.907.907,0,0,0-.924-.556,1.135,1.135,0,0,0-.877.344,1.27,1.27,0,0,0-.319.9,2,2,0,0,0,.261,1.065,4.623,4.623,0,0,0,.818.933l1.653,1.457a7.26,7.26,0,0,1,1.457,1.735,4.131,4.131,0,0,1,.524,2.113,3.355,3.355,0,0,1-.417,1.685,2.968,2.968,0,0,1-1.17,1.154,3.51,3.51,0,0,1-1.735.417A3.394,3.394,0,0,1-1643.739,2416.74Z" transform="translate(1668.805 -2404.17)" fill="#6b6a7e"/>
    </g>
    <g id="Group_25" data-name="Group 25">
      <g id="Group_24" data-name="Group 24">
        <path id="Path_59" data-name="Path 59" d="M-1701.111,2381.8l-1.062-.613-.508.88,1.062.613Zm8.786-2.968.347-.371-.774-.727-.347.372Zm9.885-7.393-.479-.949-.453.229.478.947Zm-12.964,51.4.307.4.847-.642-.309-.406Zm-7.278-1.2.508.881,1.062-.613-.507-.879Zm22.348-56.82-.419-1.152-.955.347.42,1.152Zm-26.988,30.51,1.208.213.176-1-1.207-.213Zm0,13.048.177,1,1.205-.213-.174-1Zm13.535,24.138.779.654.787-.939-.777-.652Zm54.4-51.642-.308-.4-.842.642.306.4Zm-31.687-12.753-.121-1.057-.506.06.124,1.055Zm43.6,27.21-.176-1-1.209.214.178,1ZM-1641,2371.2l-.779-.653-.787.939.779.654Zm8.9,10.876-.509-.881-1.06.614.507.88Zm-16.192-9.542-.428-.274-.573.895.427.275Zm-18.587-11.123h-1.015v1.225h1.015Zm7.344,6.348-.5-.11-.229,1.036.5.11Zm6.46-3.735-.954-.348-.419,1.152.954.347Zm-39.137,7.463-.789-.939-.779.653.789.939Zm55.95,43.9.978.416.2-.469-.976-.415Zm2.591,6.533,1.062.613.509-.881-1.062-.612Zm-66.066-9.8-.15-.485-1.015.313.151.486Zm69.985-17.4-11.493,2.026v-2.677l5.635-1.738-.149-.484-5.486,1.692v-2.947l4.305-1.9-.205-.463-4.1,1.812v-1.571a3.118,3.118,0,0,0-.2-.988l7.481-4.319-.507-.881-7.451,4.3a3.18,3.18,0,0,0-.9-.834l-1.679-.958,3.678-2.8-.307-.4-3.849,2.928-2.534-1.447,4.19-4.042-.35-.364-4.3,4.144-1.863-1.062,7.46-8.89-.777-.654-7.579,9.032-2.29-1.307,3.75-5.852-.426-.274-3.765,5.874-2.22-1.267,3.043-6.256-.454-.222-3.032,6.227-1.729-.987,4.045-11.118-.954-.347-3.986,10.955-2.452-1.4,1.272-5.717-.494-.11-1.24,5.565-2.564-1.464.475-4.64-.5-.052-.452,4.417-1.125-.643a2.984,2.984,0,0,0-1.045-.335v-8.725h-1.015v8.717a2.952,2.952,0,0,0-1.09.345l-1.462.835-.53-4.534-.5.059.554,4.748-2.538,1.451-1.333-5.614-.493.116,1.368,5.759-2.109,1.205-3.986-10.952-.953.347,4.044,11.115-2.048,1.171-3.108-6.167-.452.228,3.12,6.19-2.221,1.27-3.815-5.771-.422.279,3.795,5.744-1.972,1.128-7.582-9.033-.776.651,7.46,8.894-2.206,1.261L-1691.4,2379l-.347.368,4.134,3.876-2.564,1.466-3.727-2.753-.3.407,3.546,2.62-1.3.743a3.187,3.187,0,0,0-.9.835l-7.46-4.307-.507.88,7.49,4.324a3.077,3.077,0,0,0-.2.989v2.007l-4.257-1.812-.2.466,4.456,1.9v2.916l-5.591-1.64-.142.485,5.733,1.683v2.279l-11.5-2.028-.177,1,11.681,2.06v2.495l-6.947-.357-.026.5,6.972.36v2.554l-6.95.455.033.5,6.916-.454v2.127l-11.681,2.06.177,1,11.5-2.028v2.677l-5.6,1.729.149.484,5.453-1.683v2.948l-4.272,1.889.2.463,4.069-1.8v1.571a3.174,3.174,0,0,0,.2.988l-7.489,4.324.507.88,7.461-4.307a3.163,3.163,0,0,0,.9.834l1.681.959-3.653,2.778.305.4,3.824-2.909,2.538,1.447-4.168,4.019.35.364,4.275-4.122,1.86,1.063-7.467,8.9.777.654,7.586-9.04,2.293,1.308-3.733,5.826.427.273,3.745-5.847,2.222,1.268-3.03,6.228.455.222,3.016-6.2,1.728.985-4.05,11.128.953.349,3.991-10.966,2.454,1.4-1.266,5.686.5.11,1.231-5.533,2.567,1.465-.472,4.607.5.052.449-4.385,1.123.642a2.949,2.949,0,0,0,1.048.334v8.714h1.015v-8.707a3,3,0,0,0,1.086-.343l1.464-.838.532,4.566.5-.058-.556-4.781,2.538-1.451,1.339,5.646.493-.117-1.375-5.791,2.109-1.205,3.982,10.943.954-.347-4.042-11.107,2.048-1.17,3.124,6.2.452-.229-3.135-6.219,2.221-1.27,3.832,5.8.423-.279-3.813-5.771,1.973-1.128,7.573,9.025.779-.652-7.457-8.886,2.206-1.26,4.271,4,.348-.37-4.159-3.9,2.564-1.464,3.752,2.772.3-.408-3.574-2.639,1.3-.744a3.2,3.2,0,0,0,.906-.835l7.449,4.3.508-.878-7.482-4.319a3.131,3.131,0,0,0,.2-.988v-2.007l4.289,1.825.2-.466-4.487-1.909v-2.915l5.622,1.649.143-.486-5.765-1.691v-2.281l11.493,2.026.176-1-11.669-2.057v-2.492l6.979.359.027-.507-7.006-.361V2400.4l6.981-.458-.032-.505-6.949.457v-2.129l11.669-2.057Zm-12.51,20.558a2.432,2.432,0,0,1-1.066,1.838l-22.969,13.129a2.255,2.255,0,0,1-1.072.244,2.225,2.225,0,0,1-1.069-.243l-23.013-13.132a2.438,2.438,0,0,1-1.067-1.837v-26.812a2.439,2.439,0,0,1,1.066-1.84l22.972-13.128a2.213,2.213,0,0,1,1.069-.245,2.233,2.233,0,0,1,1.071.244l23.01,13.131a2.434,2.434,0,0,1,1.067,1.838Zm9.811-11.351.026-.508-1.061-.054-.026.508Zm3.605,5.256,1.209.214.176-1-1.206-.212Zm-73.477-9.366-.026.509,1.059.053.027-.507Zm67.286-8.193.148.486,1.015-.315-.15-.484Zm-63.475-3.271-.978-.417-.2.469.977.415Zm34.8,47.253.123,1.056.505-.059-.123-1.054Zm-22.771-4.406.429.274.572-.894-.427-.275Zm11.242,4.775.5.111.231-1.037-.5-.111Zm32.782-11.081-.347.371.775.727.348-.372Zm-39.243,14.816.955.348.419-1.152-.955-.348Zm13.8,2.614h1.017v-1.226h-1.017Zm13.447-3.418.42,1.152.954-.348-.419-1.152Zm11.885-6.659.789.939.779-.654-.787-.939Zm-9.776.041.477.948.454-.229-.478-.949Z" transform="translate(1707.321 -2361.406)" fill="#6b6a7e"/>
      </g>
    </g>
    <g id="Group_27" data-name="Group 27" transform="translate(35.421 17.89)">
      <g id="Group_26" data-name="Group 26">
        <path id="Path_60" data-name="Path 60" d="M-1653.219,2390.186a1.262,1.262,0,0,0-.261-.347c-.068-.055-.141-.125-.284.118a1.437,1.437,0,0,1-.345.414c-.554.46-1.275.411-1.113.737a1.878,1.878,0,0,0,.709.619,3.164,3.164,0,0,1-2.313,1.368v-3.3h.637v-.664h-.637v-.674h1.848l-.421-.777h-1.428v-.772a1.275,1.275,0,0,0,.862-1.2,1.276,1.276,0,0,0-1.276-1.274,1.275,1.275,0,0,0-1.274,1.274,1.273,1.273,0,0,0,.86,1.2v.772h-1.427l-.422.777h1.849v.674h-.636v.664h.636v3.3a3.169,3.169,0,0,1-2.31-1.37,1.864,1.864,0,0,0,.707-.616c.161-.325-.556-.277-1.108-.734a1.432,1.432,0,0,1-.351-.417c-.143-.243-.217-.173-.285-.118a1.3,1.3,0,0,0-.256.337c-.351.607-.712,1.75-.318,1.951a1.182,1.182,0,0,0,.8-.043,4.1,4.1,0,0,0,3.54,1.913,4.1,4.1,0,0,0,3.54-1.911,1.179,1.179,0,0,0,.792.042C-1652.514,2391.927-1652.868,2390.795-1653.219,2390.186Zm-4.443-4.486a.422.422,0,0,1,.421-.421.421.421,0,0,1,.421.421.42.42,0,0,1-.421.42A.42.42,0,0,1-1657.662,2385.7Z" transform="translate(1661.746 -2384.425)" fill="#6b6a7e"/>
      </g>
    </g>
    <g id="Group_32" data-name="Group 32" transform="translate(25.141 55.083)">
      <g id="Group_29" data-name="Group 29">
        <g id="Group_28" data-name="Group 28">
          <path id="Path_61" data-name="Path 61" d="M-1674.973,2432.814v-.535h3.566v.535Z" transform="translate(1674.973 -2432.279)" fill="#6b6a7e"/>
        </g>
      </g>
      <g id="Group_31" data-name="Group 31" transform="translate(26.006)">
        <g id="Group_30" data-name="Group 30">
          <path id="Path_62" data-name="Path 62" d="M-1641.512,2432.814v-.535h3.566v.535Z" transform="translate(1641.512 -2432.279)" fill="#6b6a7e"/>
        </g>
      </g>
    </g>
  </g>
</svg>
